<?xml version="1.0" encoding="utf-8"?>
<!-- Generator: Adobe Illustrator 16.0.0, SVG Export Plug-In . SVG Version: 6.00 Build 0)  -->
<!DOCTYPE svg PUBLIC "-//W3C//DTD SVG 1.1//EN" "http://www.w3.org/Graphics/SVG/1.1/DTD/svg11.dtd">
<svg version="1.1" id="Layer_1" xmlns="http://www.w3.org/2000/svg" xmlns:xlink="http://www.w3.org/1999/xlink" x="0px" y="0px"
	 width="864px" height="864px" viewBox="0 0 864 864" enable-background="new 0 0 864 864" xml:space="preserve">
<path fill-rule="evenodd" clip-rule="evenodd" d="M285.072,485.814c-1.422-1.697-2.771-3.462-4.276-5.082
	c-17.52-18.866-29.013-40.862-33.806-66.167c-7.385-38.993-16.021-77.835-21.216-117.126c-3.5-26.467-2.971-53.625-2.221-80.417
	c0.293-10.468,4.637-21.593,9.764-30.984c8.887-16.279,19.821-31.442,30.396-47.848c6.692,8.705,12.301,16,19.174,24.941
	c2.274-15.526,3.917-28.676,6.193-41.715c2.112-12.098,4.966-24.066,7.365-36.118c1.473-7.396,5.778-12.391,12.457-15.532
	c31.742-14.928,64.867-23.714,100.23-22.629c9.531,0.292,10.895,2.075,12.22,11.802c2.825,20.728,6.179,41.383,9.398,62.608
	c1.605-0.628,2.497-0.686,2.79-1.135c10.126-15.498,25.731-20.794,42.683-26.035c24.134-7.462,45.335-2.486,67.534,6.712
	c19.09,7.909,33.848,17.435,32.204,40.847c6.257-5.5,11.238-11.289,17.458-15.005c8.773-5.244,11.389-3.97,18.679,5.429
	c4.496-2.617,9.144-5.204,13.676-7.982c10.488-6.43,16.124-6.407,21.754,0.25c6.268,7.412,6.14,19.667-0.472,26.878
	c-1.883,2.054-4.242,3.683-6.451,5.423c-9.254,7.29-18.451,14.654-27.836,21.772c-4.767,3.614-4.661,6.62-1.022,11.375
	c17.413,22.758,27.385,47.95,23.233,77.246c-0.608,4.289-1.313,8.708-2.914,12.69c-15.522,38.636-21.561,79.442-27.97,120.188
	c-1.311,8.332-3.331,16.562-5.248,24.786c-6.64,28.465-22.568,50.663-45.897,67.891c-5.42,4.002-10.552,8.393-15.815,12.604
	c0.524,0.753,1.049,1.506,1.574,2.26c2.09-1.283,4.323-2.383,6.244-3.882c6.459-5.036,12.581-10.533,19.254-15.258
	c8.062-5.708,11.694-5.233,18.239,1.039c6.293,6.029,7.571,13.03,2.978,20.069c-5.314,8.146-10.946,16.104-16.767,23.898
	c-4.082,5.465-4.199,10.406-0.514,16.193c4.533,7.118,8.568,14.576,12.425,22.088c2.593,5.049,5.873,6.275,11.232,4.459
	c12.312-4.173,24.22-1.853,35.937,2.886c4.166,1.685,4.77,3.719,2.486,7.55c-6.804,11.412-15.063,21.312-28.03,27.5
	c3.104,8.051,6.492,15.478,8.846,23.22c5.873,19.303,12.498,38.497,16.548,58.204c4.707,22.908-3.991,38.333-25.396,47.559
	c-9.493,4.092-19.934,6.801-30.202,8.102c-18.305,2.321-34.279-2.205-44.042-22.888c-0.36,4.664-0.805,7.02-0.678,9.344
	c0.866,15.852,1.865,31.696,2.798,47.544c1.18,20.059-6.32,30.614-26.375,32.123c-19.534,1.47-39.295,0.49-58.93-0.188
	c-9.909-0.342-15.373-8.079-20.967-17.461c-5.022,15.554-16.84,18.323-29.635,18.394c-17.351,0.098-34.821,0.606-52.027-1.146
	c-18.21-1.855-24.608-11.011-23.674-29.391c0.767-15.093,1.73-30.179,2.571-45.27c0.111-1.995,0.015-4.002,0.015-6.745
	c-21.955,22.086-46.861,17.79-71.475,8.478c-22.772-8.617-31.748-26.452-27.254-50.382c1.983-10.562,4.867-20.951,6.928-31.501
	c0.443-2.271-0.077-5.676-1.552-7.229c-11.804-12.429-16.039-29.741-10.664-47.734c5.021,1.524,10.125,2.876,15.083,4.639
	c5.007,1.778,9.871,3.966,15.288,6.175c8.747-27.15,24.28-50.384,38.399-74.378c1.142-1.939,1.538-6.05,0.364-7.209
	c-1.699-1.677-5.349-2.556-7.816-2.054c-7.762,1.577-15.295,4.269-23.042,5.946c-8.338,1.805-15.741,0.053-21.119-7.347
	c-6.439-8.859-5.962-12.276,3.015-18.873c1.837-1.35,3.734-2.621,5.513-3.864c-0.221-0.751-0.21-1.404-0.494-1.579
	c-14.162-8.725-14.746-21.733-1.471-32.421c5.552-4.47,10.959-2.574,16.526-0.005c7.195,3.32,14.467,6.479,21.757,9.588
	c1.566,0.668,3.349,0.825,5.032,1.219C284.4,486.705,284.736,486.261,285.072,485.814z"/>
<g>
	<path fill-rule="evenodd" clip-rule="evenodd" fill="#8DC63F" d="M616.849,588.493c-6.767,5.455-11.863,10.3-17.679,14.016
		c-4.428,2.828-9.178,1.699-11.467-3.614c-2.27-5.271-0.051-8.782,5.223-10.753C600.054,585.477,607.116,584.761,616.849,588.493z"
		/>
	<path fill-rule="evenodd" clip-rule="evenodd" fill="#8DC63F" d="M239.83,649.381c-9.426-4.752-12.485-12.864-13.62-21.998
		c-0.535-4.314,1.733-5.322,5.662-3.938C243.906,627.685,247.144,637.453,239.83,649.381z"/>
</g>
<g>
	<path fill-rule="evenodd" clip-rule="evenodd" fill="#A97C50" d="M301.709,256.715c-0.322-5.191-0.425-10.408-1-15.572
		c-5.572-50.13-2.977-99.737,9.479-148.704c0.648-2.55,1.736-5.802,3.693-7.073c12.317-8.002,25.822-13.254,42.333-16.874
		c0,27.809,0,54.61,0,81.411c0.945,0.01,1.891,0.02,2.836,0.029c1.221-17.457,2.515-34.909,3.63-52.373
		c0.539-8.435,0.933-16.89,1.025-25.339c0.055-5.113,1.765-7.803,8.604-6.845c-0.535,60.854,0.223,121.824,11.464,181.965
		c1.04-0.017,2.081-0.033,3.121-0.05c0-4.565,0-9.13,0-13.696c0-4.501,0-9.003,0-15.653c15.113,17.384,14.397,38.294,21.516,56.799
		c2.996-9.097,1.968-30.464-2.388-38.948c-5.727-11.151-12.292-21.87-18.101-32.981c-1.824-3.489-3.175-7.604-3.377-11.504
		c-2.063-39.909-3.729-79.839-5.837-119.746c-0.293-5.54,1.156-8.261,6.685-8.554c0.507-0.027,1.009-0.169,1.512-0.27
		c15.71-3.139,18.925-0.637,21.893,15.792c5.007,27.713,10.284,55.377,15.475,83.057c0.272,1.45,0.797,2.851,1.915,6.759
		c6.935-12.308,13.724-22.419,18.508-33.404c4.633-10.635,11.159-18.4,22.22-21.655c10.921-3.213,22.041-5.754,35.342-9.171
		c-8.41,46.329-12.596,90.634-15.175,135.081c1.208,0.173,2.416,0.348,3.624,0.522c7.936-43.942,15.872-87.885,24.057-133.206
		c12.647,5.095,25.761,10.379,39.735,16.009c-13.585,17.155-26.315,33.231-39.046,49.308c0.527,0.465,1.057,0.931,1.584,1.396
		c16.943-9.27,27.612-25.512,41.733-39.35c0.994,2.498,1.881,4.174,2.339,5.96c5.658,22.073,11.23,44.169,16.88,66.245
		c2.162,8.441,4.904,9.169,12.379,4.408c3.578-2.28,7.873-3.433,11.844-5.097c0.271,4.889,1.199,9.864,0.573,14.634
		c-0.391,2.981-2.842,5.879-4.859,8.425c-7.539,9.51-12.146,19.976-10.268,33.295c1.785-2.422,3.835-4.697,5.303-7.298
		c3.088-5.468,5.167-11.656,8.955-16.544c5.145-6.64,8.428-13.354,5.988-22.573c9.434,6.799,10.922,19.042,4.219,26.376
		c-1.357,1.486-2.788,3.226-3.325,5.095c-5.72,19.894-11.283,39.833-16.818,59.78c-0.326,1.173-0.042,2.516,0.557,4.035
		c9.847-19.453,12.067-42.558,26.936-59.554c0.848,0.222,1.696,0.444,2.545,0.667c-0.849,5.869-0.656,12.132-2.709,17.543
		c-17.682,46.587-23.631,95.846-33.281,144.25c-7.931,39.78-31.001,67.829-67.347,84.031
		c-56.332,25.112-114.502,25.022-172.738,7.344c-32.061-9.734-55.297-31.765-72.505-59.83c-5.078-8.282-8.023-18.333-10.002-27.973
		c-8.133-39.628-17.229-79.181-22.59-119.215c-3.742-27.939-3.018-56.646-2.106-84.941c0.299-9.28,7.453-18.339,11.472-27.499
		c1.082,0.194,2.163,0.389,3.244,0.583c2.836,17.623,5.673,35.246,8.51,52.869c0.654-0.102,1.309-0.203,1.962-0.305
		c-0.8-20.629-1.609-41.259-2.386-61.89c-0.086-2.299-0.533-4.789,0.16-6.866c1.032-3.096,3.426-4.982,6.188-1.562
		c11.44,14.169,22.787,28.217,24.333,47.705c0.907,11.433,3.666,22.726,5.721,34.057c0.431,2.374,1.431,4.643,2.167,6.959
		C300.641,256.9,301.175,256.807,301.709,256.715z M325.346,423.141c27.314-0.028,49.391-21.541,49.466-48.205
		c0.076-26.879-22.532-48.935-49.919-48.699c-27.089,0.232-49.259,22.259-49.083,48.768
		C275.988,401.747,298.032,423.168,325.346,423.141z M522.199,423.53c27.067,0.731,49.616-20.317,50.533-47.169
		c0.913-26.727-21.185-49.284-48.758-49.774c-26.684-0.475-49.243,20.586-50.185,46.849
		C472.827,400.318,494.535,422.783,522.199,423.53z"/>
	<path fill-rule="evenodd" clip-rule="evenodd" fill="#A97C50" d="M475.251,599.71c2.099-3.641,4.197-7.282,6.296-10.923
		c-0.384-0.282-0.768-0.564-1.151-0.847c-0.77,0.452-1.763,0.727-2.277,1.378c-12.479,15.801-28.626,7.296-43.495,6.187
		c-1.33-0.099-3.7-5.413-3.178-7.773c1.888-8.537,2.16-16.006-2.836-24.165c-2.42-3.954-1.082-11.06,0.266-16.299
		c3.156-12.264,16.337-22.491,28.772-23.624c7.389-0.673,14.802-1.247,22.132-2.351c4.106-0.617,6.251,0.461,7.173,4.54
		c4.118,18.217,8.427,36.393,12.384,54.644c0.393,1.812-0.504,4.86-1.89,5.938c-6.751,5.251-13.872,10.028-20.861,14.974
		C476.14,600.83,475.695,600.271,475.251,599.71z"/>
	<path fill-rule="evenodd" clip-rule="evenodd" fill="#A97C50" d="M412.71,647.72c-6.759-1.58-13.477-3.382-20.29-4.673
		c-5.638-1.069-7.405-3.484-6.566-9.531c0.7-5.048-0.735-10.479-1.715-15.646c-1.054-5.558-0.206-8.466,6.211-10.436
		c23.531-7.222,47.024-5.598,70.62-1.294c1.655,0.302,2.925,2.719,4.373,4.153c-2.489,2.199-4.728,5.801-7.521,6.3
		c-5.579,0.999-11.463,0.298-17.221,0.298c-0.124,0.663-0.247,1.327-0.371,1.99c2.933,0.695,5.836,1.64,8.809,2.014
		c3.028,0.381,6.275-0.341,9.144,0.447c2.029,0.559,3.588,2.83,5.355,4.336c-1.94,1.125-3.915,3.271-5.817,3.208
		c-10.221-0.332-20.421-1.251-30.635-1.878c-2.754-0.169-5.527-0.026-8.293-0.026c-0.101,0.692-0.201,1.385-0.302,2.076
		c9.039,1.36,18.066,2.807,27.124,4.043c4.555,0.622,9.176,0.74,13.741,1.31c4.585,0.57,6.569,3.295,4.331,7.503
		c-5.152,9.692-10.572,19.247-16.173,28.686c-0.833,1.402-3.564,2.979-4.871,2.599c-16.868-4.908-33.744-9.848-50.342-15.575
		c-3.456-1.191-8.744-6.746-8.128-8.354c2.371-6.2,7.833-1.378,11.957-1.244c5.387,0.176,10.743,1.331,16.111,2.065
		C412.397,649.299,412.553,648.51,412.71,647.72z"/>
	<path fill-rule="evenodd" clip-rule="evenodd" fill="#A97C50" d="M352.827,776.902c-0.63,8.695-1.262,17.391-1.888,26.02
		c-13.58-0.509-17.604-4.49-17.068-17.142c0.514-12.169,1.424-24.318,2.171-36.658c24.804,16.225,48.867,21.924,73.731-2.042
		c0,11.393,0.021,20.666-0.011,29.938c-0.012,3.579-0.125,7.158-0.231,10.735c-0.351,11.716-3.947,15.125-15.625,16.203
		c-5.265,0.486-7.373-1.601-8.432-6.321c-1.424-6.346-3.25-12.602-4.904-18.896c-0.659,0.089-1.319,0.178-1.978,0.267
		c0,8.342,0,16.685,0,25.49c-7.655,0-14.453,0-22.504,0c0-9.532,0-18.574,0-27.616C355,776.887,353.914,776.895,352.827,776.902z"/>
	<path fill-rule="evenodd" clip-rule="evenodd" fill="#A97C50" d="M301.975,727.918c-0.814-6.916-1.627-13.832-2.44-20.749
		c-0.788-0.081-1.575-0.16-2.363-0.24c-0.873,8.985-1.746,17.971-2.724,28.038c-5.329,0.308-10.997,0.635-18.223,1.052
		c0.98-8.473,2.293-15.676,2.527-22.915c0.285-8.855,0.979-18.028-0.893-26.539c-2.413-10.967-1.463-21.057,1.228-31.704
		c4.496-17.79,7.983-35.835,11.829-53.788c1.398-6.524,1.963-13.464,10.11-17.686c0,2.757,0.415,4.344-0.064,5.588
		c-4.925,12.822-2.782,25.544-0.466,38.543c3.047,17.105,3.857,34.668,7.761,51.542c3.317,14.342,1.254,27.924-0.806,41.786
		c-0.384,2.581-1.933,4.988-2.945,7.478C303.662,728.188,302.819,728.053,301.975,727.918z"/>
	<path fill-rule="evenodd" clip-rule="evenodd" fill="#A97C50" d="M457.322,732.219c-5.646-17.093,4.868-21.472,17.074-24.858
		c7.637-2.118,15.1-4.86,24.554-7.945c-2.463,15.459-4.482,28.134-6.503,40.809c0.62,0.299,1.238,0.596,1.856,0.895
		c1.706-3.78,3.936-7.419,4.995-11.37c1.584-5.915,2.143-12.1,3.596-18.057c0.391-1.6,2.339-3.747,3.767-3.908
		c1.509-0.171,4.711,1.802,4.667,2.719c-0.479,10.064,4.771,20.546-3.497,30.082c-12.262,14.141-33.546,18.846-49.979,9.643
		c-6.223-3.484-13.407-6.955-17.24-12.459c-2.997-4.307-1.498-11.742-1.996-17.788c3.432,0.297,7.767-0.581,10.067,1.188
		c2.982,2.291,4.343,6.691,6.402,10.185C455.831,731.641,456.576,731.93,457.322,732.219z"/>
	<path fill-rule="evenodd" clip-rule="evenodd" fill="#A97C50" d="M283.929,574.947c13.158-19.894,26.279-39.811,39.497-59.663
		c3.521-5.288,8.333-6.015,14.085-3.653c15.629,6.415,15.656,6.35,11.565,23.182c-0.361,1.488-1.039,2.979-1.03,4.465
		c0.103,16.655-9.756,24.364-24.553,28.145c-12.636,3.226-25.137,6.98-37.699,10.501
		C285.173,576.932,284.551,575.939,283.929,574.947z"/>
	<path fill-rule="evenodd" clip-rule="evenodd" fill="#A97C50" d="M512.666,564.846c7.383,2.793,13.435,5.083,19.486,7.371
		c0.379-0.668,0.757-1.338,1.136-2.008c-5.07-3.277-9.736-7.993-15.289-9.559c-15.521-4.374-18.089-15.794-18.085-29.971
		c5.498,2.346,10.633,4.967,16.046,6.729c6.29,2.049,12.842,4.716,19.251,4.64c9.434-0.11,14.184,4.431,18.178,11.945
		c7.043,13.247,14.596,26.224,22.04,39.502C562.143,597.785,518.831,578.3,512.666,564.846z"/>
	<path fill-rule="evenodd" clip-rule="evenodd" fill="#A97C50" d="M514.817,748.239c0,12.954,0.091,25.909-0.035,38.862
		c-0.076,7.925-4.124,13.205-11.906,14.691c-7.75,1.481-15.646,2.211-23.49,3.183c-1.232,0.153-2.659,0.156-3.767-0.312
		c-10.119-4.283-17.792-29.207-11.442-38.121c1.55-2.177,4.832-3.39,7.562-4.364c1.799-0.643,4.034-0.088,6.074-0.026
		c15.241,0.456,18.328-0.818,34.337-14.23C513.038,748.027,513.928,748.133,514.817,748.239z"/>
	<path fill-rule="evenodd" clip-rule="evenodd" fill="#A97C50" d="M412.65,723.132c-0.176,9.846-3.198,16.533-11.456,20.973
		c-4.443,2.39-7.866,7.105-12.462,8.657c-4.537,1.531-10.743,2.006-14.828,0.047c-5.597-2.685-2.058-8.114-0.716-12.798
		c2.213-7.729,4.162-15.666,4.943-23.642c1.171-11.95,3.597-13.747,13.876-8.116c5.361,2.938,10.751,5.864,15.856,9.212
		C409.845,718.764,411.076,721.209,412.65,723.132z"/>
	<path fill-rule="evenodd" clip-rule="evenodd" fill="#A97C50" d="M536.097,676.152c-7.823-24.493-15.073-47.193-22.7-71.072
		c11.469,5.938,22.029,10.878,32.024,16.776c6.009,3.546,8.516,19.965,4.371,29.47C546.164,659.646,541.048,667.317,536.097,676.152
		z"/>
	<path fill-rule="evenodd" clip-rule="evenodd" fill="#A97C50" d="M272.297,510.501c-8.154-4.949-15.42-9.189-22.468-13.766
		c-1.608-1.045-2.464-3.25-3.666-4.922c2.146-0.915,4.989-3.214,6.333-2.536c18.687,9.405,37.171,19.214,55.678,28.974
		c0.232,0.122,0.116,0.902,0.305,2.806c-9.763-5.079-18.877-9.821-27.992-14.563c-0.439,0.738-0.877,1.476-1.316,2.214
		c7.958,5.813,15.918,11.628,23.877,17.442c-0.294,0.534-0.589,1.068-0.884,1.604c-1.087-0.055-2.565,0.334-3.204-0.229
		c-11.896-10.466-24.608-6.902-37.579-2.674c-3.943,1.286-8.322,1.232-12.501,1.793c-0.31-0.801-0.62-1.602-0.93-2.401
		C255.706,519.864,263.461,515.487,272.297,510.501z"/>
	<path fill-rule="evenodd" clip-rule="evenodd" fill="#A97C50" d="M573.56,502.594c-6.793,10.061-13.586,20.121-20.296,30.058
		c-10.035-4.748-10.997-8.989-3.846-15.173c6.954-6.013,14.279-11.596,21.441-17.367C571.76,500.938,572.661,501.767,573.56,502.594
		z"/>
	<path fill-rule="evenodd" clip-rule="evenodd" fill="#A97C50" d="M606.367,676.529c7.302,14.973,11.664,29.471,0,43.836
		C606.367,705.754,606.367,691.142,606.367,676.529z"/>
</g>
<g>
	<path fill-rule="evenodd" clip-rule="evenodd" fill="#754C29" d="M573.062,735.563c-2.713-12.349-4.999-22.753-7.283-33.156
		c-1.001,0.114-2,0.229-3,0.346c0.858,10.512,1.717,21.023,2.571,31.482c-13.778,1.637-19.081-1.355-22.352-13.823
		c-2.527-9.637-4.157-19.518-5.922-29.339c-0.328-1.827,0.563-3.887,0.975-5.823c0.1-0.469,0.477-0.908,0.804-1.298
		c20.885-24.842,19.857-52.887,12.004-81.94c-0.265-0.978-0.418-2.001-0.477-3.013c-0.027-0.464,0.301-0.949,0.779-2.315
		c7.673-0.666,11.144,4.373,12.912,10.696c3.929,14.046,7.365,28.229,11.034,42.349c1.248,4.801,2.595,9.576,3.895,14.364
		c0.994-0.12,1.987-0.24,2.981-0.362c0-3.007,0.562-6.145-0.095-9.001c-3.376-14.694-7.089-29.311-10.626-43.967
		c-0.671-2.786-1.079-5.636-1.753-9.223c7.355,1.592,11.854,4.154,14.245,10.483c5.969,15.799,12.633,31.337,18.548,47.155
		c1.101,2.944,0.288,6.742-0.128,10.087c-0.814,6.562-2.692,13.065-2.825,19.621c-0.211,10.479,0.191,21.022,1.21,31.453
		c0.628,6.43-1.707,9.741-7.547,11.065C586.401,732.905,579.737,734.183,573.062,735.563z"/>
	<path fill-rule="evenodd" clip-rule="evenodd" fill="#754C29" d="M358.276,575.799c-2.65,0.33-4.325,0.537-6.953,0.862
		c3.573-17.756,6.851-35.01,10.764-52.118c0.426-1.861,4.596-4.212,6.886-4.067c9.433,0.596,18.817,2.024,28.208,3.231
		c6.125,0.786,8.144,4.704,4.896,10.08c-2.037,3.369-4.784,6.31-7.212,9.442c0.636,0.685,1.271,1.37,1.906,2.056
		c2.265-2.009,4.53-4.017,6.793-6.026c3.64-3.233,6.282-8.836,12.732-5.469c5.987,3.125,8.092,8.733,5.487,16.521
		c-2.67,7.981-2.438,15.119,1.872,22.765c6.086,10.8-1.132,22.604-13.511,23.427c-3.042,0.203-6.07,0.609-9.85,1
		c0.762-2.63,1.455-5.021,2.539-8.76c-2.88,2.06-4.671,3.289-6.406,4.592c-11.605,8.718-21.403,9.748-33.27,1.788
		C352.977,588.293,350.729,588.572,358.276,575.799z"/>
	<path fill-rule="evenodd" clip-rule="evenodd" fill="#754C29" d="M492.194,618.04c4.886-2.577,8.195-4.321,12.433-6.557
		c0.746,9.387,4.182,17.591-2.907,26.814c-5.309,6.907-7.138,16.627-9.905,25.287c-1.22,3.814-1.043,8.105-1.301,12.191
		c-1.223,19.313-4.194,22.872-23.564,26.191c-2.065,0.354-5.812-1.942-6.707-3.939c-0.884-1.973-0.021-6.527,1.59-7.538
		c13.823-8.665,18.654-22.371,21.135-37.629c-2.008,3.539-3.808,7.217-6.07,10.583c-4.399,6.545-8.715,13.209-13.823,19.174
		c-1.516,1.77-7.583,2.58-8.088,1.739c-1.717-2.854-3.436-7.279-2.341-9.954c3.182-7.778,7.783-14.969,11.725-22.445
		c4.967-9.422,9.099-18.732,4.369-29.906c-2.373-5.605,0.874-10.758,6.188-13.409c8.854-4.418,17.997-8.255,27.379-12.501
		C505.298,605.664,493.794,607.995,492.194,618.04z"/>
	<path fill-rule="evenodd" clip-rule="evenodd" fill="#754C29" d="M261.932,627.88c1.238,9.52,2.28,19.068,3.778,28.546
		c1.154,7.302,3.346,14.455,4.239,21.777c1.289,10.571,2.419,21.231,2.48,31.862c0.047,8.307-1.636,16.622-3.771,25.187
		c-10.008-9.742-3.289-24.456-10.503-36.271c0,11.42,0,21.692,0,32.098c-17.599-6.818-23.714-16.315-21.095-33.457
		c3.46-22.642,10.3-44.306,20.006-65.05c0.813-1.737,2.084-3.26,3.143-4.881C260.783,627.754,261.357,627.816,261.932,627.88z"/>
	<path fill-rule="evenodd" clip-rule="evenodd" fill="#754C29" d="M313.335,673.633c-0.932-8.604-1.679-17.235-2.849-25.808
		c-1.173-8.6-2.155-17.299-4.321-25.67c-3.197-12.355-2.931-24.464,1.561-36.176c1.426-3.717,5.282-7.525,8.938-8.951
		c1.979-0.772,5.882,3.39,9.578,5.746c4.05-3.935,5.574-13.088,16.139-13.921c-4.318,36.615-18.345,69.957-26.532,104.763
		C315.01,673.622,314.172,673.627,313.335,673.633z"/>
	<path fill-rule="evenodd" clip-rule="evenodd" fill="#754C29" d="M371.476,670.358c-10.736-1.532-21.472-3.066-32.239-4.604
		c0.407-1.506,0.451-1.961,0.545-1.972c20.183-2.324,40.625-9.842,59.979,3.403c7.956,5.445,8.37,6.894,2.552,14.23
		c-13.4,16.901-13.416,16.952-34.487,10.64c-8.33-2.497-16.698-4.968-24.772-8.15c-2.052-0.81-3.046-4.3-4.526-6.56
		c2.102-1.249,4.159-3.474,6.314-3.574c8.777-0.411,17.584-0.171,26.38-0.171C371.307,672.521,371.391,671.439,371.476,670.358z"/>
	<path fill-rule="evenodd" clip-rule="evenodd" fill="#754C29" d="M337.903,721.517c4.06,6.455,7.11,11.306,10.161,16.156
		c0.472-0.207,0.943-0.414,1.416-0.621c-1.885-5.181-2.448-11.606-5.918-15.293c-8.599-9.136-5.388-19.344-5.263-32.106
		c11.531,4.74,22.604,7.871,32.055,13.652c6.791,4.154,4.898,12.965,3.027,19.913c-2.471,9.174-9.565,17.173-6.738,27.728
		c0.188,0.7-1.661,2.218-2.826,2.91c-0.75,0.444-1.989,0.132-3.002,0.059C347.794,752.976,335.373,736.913,337.903,721.517z"/>
	<path fill-rule="evenodd" clip-rule="evenodd" fill="#754C29" d="M430.926,715.593c-10.904,0.544-19.886-2.451-28.061-9.092
		c-5.368-4.362-6.226-7.845-2.022-13.49c3.805-5.108,7.484-10.317,11.463-15.287c1.17-1.46,3.056-2.937,4.816-3.244
		c17.167-3.002,33.849,8.778,36.438,25.715c0.265,1.735-0.311,4.758-1.456,5.361C445.2,709.196,438.017,712.305,430.926,715.593z"/>
	<path fill-rule="evenodd" clip-rule="evenodd" fill="#754C29" d="M584.688,188.153c-4.101-3.915-5.04-6.688-2.202-12.104
		c4.159-7.945,6.223-17.004,9.023-25.638c0.62-1.91,0.206-4.198,0.989-5.998c0.62-1.423,2.347-2.365,3.582-3.521
		c1.105,1.2,2.698,2.213,3.238,3.628c4.013,10.496,4.957,10.93,14.253,4.615c5.709-3.878,11.01-8.375,16.847-12.032
		c1.726-1.08,4.652-0.242,7.027-0.282c-0.836,2.048-1.107,4.747-2.597,6.045c-12.915,11.246-26.147,22.126-39.059,33.376
		C591.821,179.7,588.553,183.96,584.688,188.153z"/>
	<path fill-rule="evenodd" clip-rule="evenodd" fill="#754C29" d="M339.209,656.241c0.883-11.573,1.69-22.135,2.636-34.517
		c4.754,3.476,7.686,6.444,11.236,8.025c5.873,2.615,12.028,4.862,18.29,6.247c4.172,0.92,7.819,1.629,7.757,6.548
		c-0.063,5.109-0.146,10.979-7.178,11.618C361.539,655.109,351.079,655.518,339.209,656.241z"/>
	<path fill-rule="evenodd" clip-rule="evenodd" fill="#754C29" d="M272.109,652.812c-4.106-19.146-11.611-38.227,1.129-57.33
		c4.962-7.439,7.844-10.126,16.457-11.191c-5.028,23.287-9.964,46.146-14.9,69.005C273.899,653.135,273.005,652.973,272.109,652.812
		z"/>
	<path fill-rule="evenodd" clip-rule="evenodd" fill="#754C29" d="M439.432,748.793c18.023,10.146,25.392,25.832,15.615,41.158
		c-1.631,2.555-2.293,5.715-3.815,8.357c-1.037,1.8-3.125,4.675-4.161,4.445c-2.149-0.478-4.368-2.383-5.7-4.299
		c-1.229-1.768-1.834-4.312-1.858-6.522C439.354,777.63,439.432,763.325,439.432,748.793z"/>
	<path fill-rule="evenodd" clip-rule="evenodd" fill="#754C29" d="M347.835,592.347c4.997,4.103,8.972,7.556,13.152,10.74
		c3.423,2.608,5.963,7.369,11.753,4.996c0.688-0.282,2.848,1.828,3.615,3.222c1.087,1.971,1.812,4.26,2.155,6.495
		c0.543,3.551,2.153,9.164,0.607,10.333c-2.984,2.262-8.798,3.936-11.762,2.467c-8.071-3.998-15.328-9.679-22.725-14.946
		c-0.794-0.565-0.729-2.867-0.487-4.264C345.172,605.448,346.417,599.542,347.835,592.347z"/>
	<path fill-rule="evenodd" clip-rule="evenodd" fill="#754C29" d="M547.543,616.011c-12.952-6.79-24.146-12.274-34.849-18.59
		c-2.189-1.293-2.954-5.608-3.642-8.693c-1.047-4.688-1.452-9.52-2.467-16.664c4.061,3.292,6.347,5.472,8.942,7.184
		c5.719,3.772,11.216,8.306,17.501,10.681c7.485,2.829,12.488,6.337,12.541,14.965C545.588,607.83,546.573,610.764,547.543,616.011z
		"/>
	<path fill-rule="evenodd" clip-rule="evenodd" fill="#754C29" d="M496.785,518.816c10.418-10.624,24.148-10.164,32.732,0.847
		c3.418,4.386,6.653,8.914,10.025,13.449C528.028,539.012,513.06,533.918,496.785,518.816z"/>
	<path fill-rule="evenodd" clip-rule="evenodd" fill="#754C29" d="M511.132,700.453c-12.736-3.324-14.698-5.233-14.132-16.571
		c0.503-10.104,1.861-20.205,3.577-30.18c0.588-3.415,3.401-6.446,5.197-9.652c0.722,0.168,1.443,0.336,2.165,0.504
		C508.989,662.932,510.039,681.312,511.132,700.453z"/>
	<path fill-rule="evenodd" clip-rule="evenodd" fill="#754C29" d="M420.188,524.937c4.358,0,8.716,0,13.073,0
		c0.292,0.513,0.584,1.026,0.876,1.541c-2.468,1.606-4.858,4.322-7.427,4.504c-2.462,0.174-5.111-2.282-7.678-3.582
		C419.417,526.578,419.803,525.757,420.188,524.937z"/>
	<path fill-rule="evenodd" clip-rule="evenodd" fill="#754C29" d="M453.695,801.398c2.489-1.544,5.129-4.49,7.427-4.244
		c2.396,0.257,4.462,3.591,6.673,5.58c-0.325,0.688-0.65,1.375-0.975,2.062c-4.056-0.262-8.11-0.524-12.164-0.785
		C454.336,803.141,454.015,802.269,453.695,801.398z"/>
</g>
<g>
	<path fill-rule="evenodd" clip-rule="evenodd" fill="#1C75BC" d="M311.374,347.31c8.016,0.155,14.43,6.809,14.388,14.928
		c-0.042,8.437-6.931,15.047-15.329,14.71c-8.077-0.324-14.142-6.983-13.906-15.27C296.76,353.477,303.294,347.153,311.374,347.31z"
		/>
	<path fill-rule="evenodd" clip-rule="evenodd" fill="#1C75BC" d="M508.733,347.547c7.906-0.174,14.711,6.322,15.048,14.365
		c0.349,8.3-6.434,15.364-14.743,15.356c-8.129-0.007-14.452-6.4-14.513-14.671C494.466,354.372,500.744,347.722,508.733,347.547z"
		/>
</g>
</svg>
