<?xml version="1.0" encoding="utf-8"?>
<svg version="1.1" id="Capa_1" x="0px" y="0px" width="460.298px" height="460.297px" viewBox="0 0 460.298 460.297" style="enable-background:new 0 0 460.298 460.297;" xmlns="http://www.w3.org/2000/svg" xmlns:bx="https://boxy-svg.com">
  <g>
    <g/>
  </g>
  <g/>
  <g/>
  <g/>
  <g/>
  <g/>
  <g/>
  <g/>
  <g/>
  <g/>
  <g/>
  <g/>
  <g/>
  <g/>
  <g/>
  <g/>
  <path style="fill: rgb(216, 216, 216); stroke: rgb(0, 0, 0);" transform="matrix(0.991209, 0, 0, 0.991209, -309.019043, -219.804962)" d="M 513.747 244 L 565.253 244 L 576.122 322.667 A 136.825 136.825 0 0 1 606.824 335.384 L 670.136 287.444 L 706.556 323.864 L 658.616 387.176 A 136.825 136.825 0 0 1 671.333 417.878 L 750 428.747 L 750 480.253 L 671.333 491.122 A 136.825 136.825 0 0 1 658.616 521.824 L 706.556 585.136 L 670.136 621.556 L 606.824 573.616 A 136.825 136.825 0 0 1 576.122 586.333 L 565.253 665 L 513.747 665 L 502.878 586.333 A 136.825 136.825 0 0 1 472.176 573.616 L 408.864 621.556 L 372.444 585.136 L 420.384 521.824 A 136.825 136.825 0 0 1 407.667 491.122 L 329 480.253 L 329 428.747 L 407.667 417.878 A 136.825 136.825 0 0 1 420.384 387.176 L 372.444 323.864 L 408.864 287.444 L 472.176 335.384 A 136.825 136.825 0 0 1 502.878 322.667 Z M 539.5 391.35 A 63.15 63.15 0 0 0 539.5 517.65 A 63.15 63.15 0 0 0 539.5 391.35" bx:shape="cog 539.5 454.5 63.15 136.825 210.5 0.38 8 1@a0ba9edb"/>
</svg>