<?xml version="1.0" encoding="utf-8"?>
<svg version="1.1" id="Capa_1" x="0px" y="0px" width="460.298px" height="460.297px" viewBox="0 0 460.298 460.297" style="enable-background:new 0 0 460.298 460.297;" xmlns="http://www.w3.org/2000/svg">
  <g>
    <g/>
  </g>
  <g/>
  <g/>
  <g/>
  <g/>
  <g/>
  <g/>
  <g/>
  <g/>
  <g/>
  <g/>
  <g/>
  <g/>
  <g/>
  <g/>
  <g/>
  <path d="M 172.717 18.233 C 166.261 23.7 159.38 35.994 156.799 46.014 C 153.784 57.399 146.042 70.15 137.437 77.889 C 129.26 85.631 115.059 104.756 105.166 121.151 C 95.699 137.09 85.802 150.296 83.22 150.296 C 81.071 150.296 79.78 152.117 81.499 154.393 C 82.792 157.126 80.211 160.768 76.336 163.503 C 72.035 166.235 70.313 168.509 72.463 168.509 C 75.045 168.509 71.174 174.431 64.289 182.171 C 56.113 191.279 53.962 195.832 58.267 195.832 C 62.569 196.289 62.14 197.655 56.545 202.209 C 48.8 208.583 49.23 209.039 57.835 211.772 C 66.871 214.96 66.871 216.78 64.289 246.38 C 61.708 270.971 62.569 277.8 66.871 278.711 C 70.313 278.711 63.429 280.534 51.383 281.899 C 30.729 284.631 29.868 285.089 18.252 309.678 C 12.226 323.34 5.343 342.465 4.051 352.028 L 1.041 369.333 L 21.261 357.493 C 32.881 351.117 46.217 346.11 51.811 346.11 C 65.15 346.11 81.931 368.876 101.295 412.596 C 116.352 446.749 118.502 449.482 128.4 447.659 C 134.854 446.292 139.586 447.203 139.586 450.391 C 139.586 453.122 146.47 455.4 154.645 455.4 C 167.554 455.4 169.706 454.032 169.706 444.471 C 169.706 427.62 191.22 424.89 212.733 439.915 C 221.768 446.292 237.69 452.666 247.584 454.032 L 265.655 456.766 L 262.645 434.452 C 260.923 422.157 259.199 408.95 259.199 405.308 C 259.199 392.557 250.595 373.433 244.571 373.433 C 236.397 373.433 229.513 357.038 232.524 344.286 C 233.816 338.368 242.421 326.073 251.458 316.508 C 269.96 297.383 293.623 289.64 353.863 282.811 C 384.409 279.623 392.584 276.436 409.797 263.685 C 430.881 247.746 457.986 220.879 457.986 216.327 C 457.986 206.307 447.229 196.743 433.461 194.01 C 411.517 189.911 384.409 169.42 375.375 150.296 C 367.63 132.992 362.899 127.071 331.057 99.749 C 306.102 77.889 262.645 54.666 247.153 54.666 C 239.409 54.666 232.095 48.746 221.338 32.806 C 203.695 7.762 190.358 3.664 172.717 18.233 Z M 358.164 130.713 C 361.607 135.268 367.202 145.74 370.212 153.937 C 374.086 163.503 384.409 174.431 397.749 183.081 C 416.679 195.378 419.262 199.021 419.262 212.227 C 419.262 220.423 421.413 228.62 423.564 229.985 C 430.448 234.541 428.73 243.192 419.262 249.57 C 412.376 254.119 404.633 254.119 385.272 250.478 C 368.92 247.291 356.443 247.291 349.989 250.024 C 341.383 253.665 342.675 254.577 361.175 255.031 C 373.222 255.488 387.421 257.308 393.446 259.587 C 404.202 262.771 403.772 263.229 388.282 270.515 C 379.245 274.614 365.909 277.8 358.164 277.347 C 340.093 277.347 313.415 267.783 315.137 262.318 C 315.999 260.043 314.277 256.854 311.694 255.031 C 307.823 252.302 309.113 250.478 315.137 248.657 C 320.732 246.835 323.311 242.736 321.592 238.641 C 320.301 234.995 322.02 232.263 326.322 232.263 C 330.195 232.263 333.207 230.442 333.207 228.165 C 333.207 225.89 342.244 214.96 353.002 204.028 L 372.792 183.992 L 363.325 167.145 C 345.686 135.723 323.311 132.535 293.194 157.58 C 275.552 172.155 273.832 174.886 279.854 179.892 C 285.878 184.449 285.449 185.815 275.552 193.101 C 269.097 197.199 259.632 211.772 254.038 224.979 C 242.851 250.935 235.106 259.587 229.942 250.478 C 227.792 246.835 224.351 248.202 218.756 256.397 C 211.01 266.87 195.522 277.8 188.637 277.8 C 186.915 277.8 189.066 273.704 193.369 268.694 C 197.671 263.685 199.825 259.587 197.671 259.587 C 195.952 259.587 196.811 256.854 199.394 253.213 C 203.695 247.746 201.546 245.926 188.637 241.371 C 173.579 235.906 173.146 234.995 180.462 229.531 C 186.486 224.979 186.915 223.155 182.184 223.155 C 178.74 222.701 181.322 219.513 188.207 215.872 C 203.267 207.218 202.837 206.307 186.056 208.583 C 172.289 210.407 172.289 209.949 180.462 203.119 C 188.637 196.289 188.637 196.289 174.869 195.832 C 166.261 195.832 161.529 194.01 163.252 191.279 C 164.543 188.548 163.252 186.272 160.24 186.272 C 157.227 185.815 164.543 183.081 176.158 179.892 C 188.207 177.164 197.243 172.155 196.811 169.42 C 196.383 166.689 201.546 163.503 208.429 161.679 C 215.743 159.858 220.478 156.669 218.756 154.393 C 217.466 152.117 223.919 150.296 232.957 150.296 C 241.993 150.296 253.178 147.108 257.48 143.466 C 262.213 139.823 272.11 136.634 279.854 136.634 C 297.925 136.634 307.392 132.535 307.392 125.25 C 307.392 122.062 309.975 118.417 312.554 117.505 C 322.881 113.864 352.139 122.062 358.164 130.713 Z M 95.699 298.295 C 126.249 313.322 159.81 350.662 177.88 388.914 C 185.625 405.763 191.22 420.336 190.358 420.79 C 185.196 425.798 170.136 427.62 167.554 423.525 C 162.823 415.327 148.622 418.513 141.309 430.353 C 129.692 449.482 120.655 444.926 107.748 413.049 C 101.295 397.567 89.676 375.254 81.499 362.958 C 64.718 339.277 53.102 336.092 25.564 347.93 C 17.391 351.574 10.505 352.941 10.505 351.117 C 10.505 343.832 23.845 307.4 30.298 297.383 C 38.904 283.266 65.581 283.721 95.699 298.295 Z M 250.595 396.656 C 249.305 400.297 247.584 398.021 245.863 392.101 C 244.143 384.361 244.571 382.538 248.014 386.184 C 250.166 388.459 251.458 393.467 250.595 396.656 Z M 160.669 440.371 C 154.215 448.57 146.042 440.825 149.912 430.353 C 152.065 423.979 153.784 423.525 158.949 428.078 C 164.112 432.631 164.543 435.364 160.669 440.371 Z" fill="black" style="opacity: 1;"/>
</svg>